
<svg width="85" height="22" viewBox="0 0 85 22" fill="none" xmlns="http://www.w3.org/2000/svg">
<path d="M1.43821 4.90909H3.83523L8.00284 15.0852H8.15625L12.3239 4.90909H14.7209V18H12.8416V8.52699H12.7202L8.85938 17.9808H7.29972L3.43892 8.5206H3.31747V18H1.43821V4.90909ZM19.5676 4.90909V18H17.5925V4.90909H19.5676ZM22.4441 18V4.90909H24.4192V16.2997H30.351V18H22.4441Z" fill="#959595"/>
<path d="M31 17.6364V5H35.5909C36.4734 5 37.2253 5.18305 37.8466 5.54914C38.4678 5.91112 38.9413 6.41501 39.267 7.06082C39.5966 7.70251 39.7613 8.44292 39.7613 9.28205C39.7613 10.1212 39.5947 10.8616 39.2613 11.5033C38.928 12.145 38.445 12.6448 37.8125 13.0026C37.1837 13.3605 36.4223 13.5395 35.5284 13.5395H32.6022V11.3984H35.1306C35.6041 11.3984 35.9943 11.31 36.3011 11.1331C36.6117 10.9521 36.8428 10.7032 36.9943 10.3865C37.1496 10.0656 37.2272 9.6975 37.2272 9.28205C37.2272 8.86248 37.1496 8.49639 36.9943 8.18377C36.8428 7.86704 36.6117 7.62229 36.3011 7.44953C35.9905 7.27265 35.5966 7.18421 35.1193 7.18421H33.4602V17.6364H31ZM42.0213 17.6364H39.3849L43.402 5H46.5724L50.5838 17.6364H47.9474L45.0326 7.88761H44.9417L42.0213 17.6364ZM41.8565 12.6694H48.0838V14.755H41.8565V12.6694ZM50.115 5H52.8707L55.5241 10.442H55.6377L58.2912 5H61.0468L56.8025 13.1692V17.6364H54.3593V13.1692L50.115 5Z" fill="white"/>
<path fill-rule="evenodd" clip-rule="evenodd" d="M69.1665 14.8448L69.1632 14.8493L69.16 14.8538C68.982 15.1058 68.5833 15.1799 68.2714 14.9596C68.0218 14.7833 67.9468 14.3905 68.1594 14.0801C68.4765 13.6758 68.7068 13.2032 68.8581 12.7412C69.0156 12.2602 69.0888 11.7136 69.086 11.1775C69.0831 10.6415 69.0041 10.0958 68.8415 9.61647C68.6853 9.15609 68.4499 8.68594 68.1285 8.28508C67.9126 7.97691 67.9835 7.58331 68.2312 7.40436C68.5407 7.18083 68.9402 7.25063 69.1208 7.50075L69.1241 7.50524L69.1274 7.50964C69.5275 8.03719 69.8556 8.62332 70.0517 9.19837C70.2581 9.87485 70.3896 10.5292 70.393 11.1706C70.3966 11.8455 70.3321 12.4844 70.0844 13.1133C69.8147 13.7982 69.5535 14.3231 69.1665 14.8448ZM72.0591 16.0976L72.0669 16.0865L72.0741 16.075C72.9608 14.6544 73.4722 12.9401 73.4627 11.1542C73.4532 9.36884 72.9238 7.66051 72.0224 6.2496C71.8271 5.93983 71.9148 5.57359 72.2441 5.33575C72.4652 5.17602 72.8803 5.23258 73.1266 5.56266C74.1443 7.1773 74.759 9.12914 74.7698 11.1473C74.7809 13.2343 74.1875 15.1228 73.1861 16.7492C72.9545 17.0681 72.5998 17.1574 72.294 16.9767C71.9625 16.7338 71.9019 16.3201 72.0591 16.0976ZM77.2497 3.44038L77.2587 3.45763L77.2687 3.47411C78.6477 5.72233 79.4137 8.31557 79.4287 11.1225C79.4437 13.9281 78.7057 16.5282 77.3517 18.7903C77.1447 19.124 76.7937 19.2181 76.4387 19.0528C76.1157 18.8421 76.0287 18.4929 76.1977 18.1402C77.3487 16.0956 78.0647 13.6861 78.0517 11.1298C78.0377 8.5849 77.3717 6.17932 76.1207 4.1345C75.9512 3.78535 76.0347 3.43762 76.3547 3.22451C76.7397 3.04039 77.1157 3.17534 77.2497 3.44038ZM81.3327 1.3008L81.3387 1.31258L81.3457 1.32402C83.0167 4.21255 83.9987 7.51498 84.0177 11.098C84.0367 14.6774 83.0917 17.987 81.4547 20.891C81.2467 21.2209 80.8977 21.3133 80.5447 21.1487C80.2227 20.9387 80.1347 20.5911 80.3017 20.2395C81.8787 17.5479 82.7277 14.4294 82.7107 11.105C82.6927 7.77201 81.7357 4.66565 80.2067 2.00054C80.0147 1.61149 80.1497 1.23046 80.4177 1.09497C80.8097 0.896092 81.1957 1.03109 81.3327 1.3008Z" fill="white"/>
</svg>
